<svg width="512" height="512" viewBox="0 0 512 512" fill="none" xmlns="http://www.w3.org/2000/svg">
  <rect width="512" height="512" fill="#0A0F1C"/>
  <path d="M256 128C192.8 128 142 178.8 142 242C142 305.2 192.8 356 256 356C319.2 356 370 305.2 370 242C370 178.8 319.2 128 256 128ZM256 328C208.2 328 170 289.8 170 242C170 194.2 208.2 156 256 156C303.8 156 342 194.2 342 242C342 289.8 303.8 328 256 328Z" fill="#0AE7F2"/>
  <path d="M256 184C223.6 184 198 209.6 198 242C198 274.4 223.6 300 256 300C288.4 300 314 274.4 314 242C314 209.6 288.4 184 256 184ZM256 272C239 272 226 259 226 242C226 225 239 212 256 212C273 212 286 225 286 242C286 259 273 272 256 272Z" fill="#0AE7F2"/>
  <path d="M256 100C256 93.4 261.4 88 268 88H284C290.6 88 296 93.4 296 100V114C296 120.6 290.6 126 284 126H268C261.4 126 256 120.6 256 114V100Z" fill="#0AE7F2"/>
  <path d="M216 100C216 93.4 221.4 88 228 88H244C250.6 88 256 93.4 256 100V114C256 120.6 250.6 126 244 126H228C221.4 126 216 120.6 216 114V100Z" fill="#0AE7F2"/>
  <path d="M256 370C256 363.4 261.4 358 268 358H284C290.6 358 296 363.4 296 370V384C296 390.6 290.6 396 284 396H268C261.4 396 256 390.6 256 384V370Z" fill="#0AE7F2"/>
  <path d="M216 370C216 363.4 221.4 358 228 358H244C250.6 358 256 363.4 256 370V384C256 390.6 250.6 396 244 396H228C221.4 396 216 390.6 216 384V370Z" fill="#0AE7F2"/>
  <path d="M128 242C121.4 242 116 236.6 116 230V214C116 207.4 121.4 202 128 202H142C148.6 202 154 207.4 154 214V230C154 236.6 148.6 242 142 242H128Z" fill="#0AE7F2"/>
  <path d="M128 282C121.4 282 116 276.6 116 270V254C116 247.4 121.4 242 128 242H142C148.6 242 154 247.4 154 254V270C154 276.6 148.6 282 142 282H128Z" fill="#0AE7F2"/>
  <path d="M370 242C363.4 242 358 236.6 358 230V214C358 207.4 363.4 202 370 202H384C390.6 202 396 207.4 396 214V230C396 236.6 390.6 242 384 242H370Z" fill="#0AE7F2"/>
  <path d="M370 282C363.4 282 358 276.6 358 270V254C358 247.4 363.4 242 370 242H384C390.6 242 396 247.4 396 254V270C396 276.6 390.6 282 384 282H370Z" fill="#0AE7F2"/>
</svg>